<svg id="Vector" xmlns="http://www.w3.org/2000/svg" viewBox="0 0 1200 1200"><defs><style>.cls-1,.cls-10{fill:none;stroke-linecap:round;stroke-miterlimit:10;}.cls-1{stroke:#fd8369;stroke-width:8px;}.cls-2{fill:#fd8369;}.cls-3{fill:#56cad8;}.cls-4{fill:#74d5de;}.cls-5{fill:#de8e68;}.cls-6{fill:#fcc486;}.cls-7{fill:#fed385;}.cls-8{fill:#d37c59;}.cls-9{fill:#fed892;}.cls-10{stroke:#74d5de;stroke-width:9px;}.cls-11{fill:#f7f7f7;opacity:0.5;}</style></defs><title>Artboard 1</title><line class="cls-1" x1="650.48" y1="434.41" x2="757.11" y2="437.22"/><polygon class="cls-2" points="244.85 672.36 244.85 850.09 403.68 938.25 667.67 868.28 670.97 687.76 491.26 608.02 244.85 672.36"/><path class="cls-3" d="M537.36,604.65c5-5.7,138.27,49.4,157.26,75.88S581.63,907,527.92,946.85c-6-4.11-20.54-14.53-20.54-14.53s45.18-138.7,86.25-185.46c-10.42-2.84-44.23-11.69-44.23-11.69l-37.07-116C518.22,616.72,530.8,612.12,537.36,604.65Z"/><path class="cls-4" d="M512.33,619.16,694.62,992.31l-26.41,11S533.75,834.2,529.42,821.59c-7.89-4.74-137.33-107.07-151.92-180.76C398.21,644.48,477.64,637,512.33,619.16Z"/><path class="cls-5" d="M580.2,407.72c10.74,7.72,22.53,23.37,28.65,77.34,10.85-5,73.72-35.06,73.72-35.06s15.3,8.63,12.24,12.8-76.5,79.84-98.2,84.57c-17,3.9-59.81-52.58-60.92-58.7s18.91-72.33,18.91-72.33Z"/><ellipse class="cls-5" cx="699.46" cy="441.64" rx="26.61" ry="22.07" transform="translate(2.89 887.82) rotate(-64.91)"/><path class="cls-6" d="M495,340.52c33-23.66,104.74,47.11,103,60.34s-42.34,65.6-69.18,52.89S471.54,357.31,495,340.52Z"/><path class="cls-7" d="M459,309.39c-134.08,0-103.68,307.7-88.33,325.12,35.86,19.92,151.1-8.11,166.71-29.86C549.8,586.82,581,309.39,459,309.39Z"/><path class="cls-5" d="M322.78,414.63c-7.74,10.61-44.55,106-35.27,133.3,16.36,48,129.41,136.76,129.41,136.76,2-8,6.89-31,6.89-31s-77.2-107.34-81.22-115.38c6.31-9.76,33.86-63.71,36.45-91.84S322.78,414.63,322.78,414.63Z"/><path class="cls-8" d="M478,330.06c0,9.86-42.93,9.28-42.93,0V267.21H478Z"/><ellipse class="cls-5" cx="473.24" cy="244.41" rx="40.54" ry="60.02" transform="translate(-4.51 8.93) rotate(-1.08)"/><circle class="cls-5" cx="431.86" cy="258.74" r="11.68"/><path class="cls-2" d="M546.94,163.88c0-14.4-11-21-20-21-16.24,0-25.32,13-40,13-15.77,0-19.47-9-36-9-31.94,0-28.67,32.9-35.26,43.26-8.29,13-13.74,26.32-13.74,35.74,0,17.28,10.63,24.88,19.25,28.08a11.68,11.68,0,0,1,21.36.3c6.06-2.62,6.55-7.23,6.55-8.75,0-5.51-5.93-15,2.44-23.6C458.6,214.64,498,217,505,208.62c2.66,4,5.27,12.31,6,14.58a30.79,30.79,0,0,0,6,.68c17.65,0,24-9,24-15,0-9-8-12.33-8-18C532.94,180.84,546.94,182.09,546.94,163.88Z"/><line class="cls-5" x1="525.58" y1="304.14" x2="531.38" y2="305.3"/><path class="cls-9" d="M388,340.13c36.42,16.62,9.9,110-2.37,114.78s-77.18-4.75-79.16-33.24S362.18,328.33,388,340.13Z"/><polygon points="667.67 1002.29 692.46 991.9 743.95 991.9 747.25 1000.4 678.06 1027.56 667.67 1002.29"/><polygon points="507.71 931.86 529.28 947.9 555.52 992.19 549.89 999.37 491.26 953.68 507.71 931.86"/><path class="cls-4" d="M1048.55,467.19c5,16.38-36.95,19.77-39.33,11.93S1043.23,449.67,1048.55,467.19Z"/><path class="cls-4" d="M1042,509.45c7.84,15.21-32.78,26.11-36.53,18.83S1033.56,493.17,1042,509.45Z"/><path class="cls-4" d="M1044.37,559.05c7.84,15.21-32.77,26.11-36.53,18.83S1036,542.77,1044.37,559.05Z"/><path class="cls-4" d="M1045.92,605c7.13,13.83-28.31,23-31.72,16.35S1038.29,590.21,1045.92,605Z"/><path class="cls-4" d="M1050.38,656c7.13,13.83-28.31,23-31.72,16.35S1042.74,641.2,1050.38,656Z"/><path class="cls-10" d="M940.28,852.15c1.21-5.61,59.78-47.41,73.65-112.08,22.6-105.41-24.94-170.83-8.8-246.13,3-14.23,14-58.79,40.48-72.05"/><path class="cls-4" d="M989.87,722.55c13.48-7.78,24.3,27.18,17.84,30.91S975.44,730.88,989.87,722.55Z"/><path class="cls-4" d="M989.13,681.63c10.32-11.65,31.65,18.09,26.71,23.67S978.08,694.09,989.13,681.63Z"/><path class="cls-4" d="M990.52,633.65c10.32-11.65,31.65,18.09,26.71,23.67S979.47,646.12,990.52,633.65Z"/><path class="cls-4" d="M983.22,593.69c8-13.37,34.48,11.85,30.67,18.25S974.7,608,983.22,593.69Z"/><path class="cls-4" d="M972.62,538.54c10-11.92,32.13,17.22,27.34,22.93S961.91,551.3,972.62,538.54Z"/><path class="cls-4" d="M974.57,480c11-10.95,30.41,20.1,25.12,25.35S962.74,491.76,974.57,480Z"/><path class="cls-4" d="M1010,405.22c11-11,30.41,20.1,25.12,25.35S998.14,416.94,1010,405.22Z"/><path class="cls-4" d="M939.11,676.68c-2.94-7.84-5-29.25-5-39.66,0-69.91-41.51-83-62.74-83-41.32,0-64.63,38.21-64.63,69.55,0,27.72,11.76,52.36,26.18,73.18a22.27,22.27,0,1,1,27.45,33.89c11.91,13.28,21.76,23.59,24.21,30.49,8.33,23.06,4.72,34,9.43,45.28,11.48,27.49,23.17,41.8,37.16,40.58,32.44-2.83,45.27-30.34,45.27-101.43C976.49,725.42,950.27,706.4,939.11,676.68Z"/><polygon class="cls-11" points="861.5 600.35 670.97 644.7 670.97 212.8 861.5 162.75 861.5 600.35"/><path class="cls-2" d="M992.18,980.07H903.75a9.57,9.57,0,0,1-9.09-6.56L850.71,840.19a9.56,9.56,0,0,1,9.08-12.56h176.77a9.57,9.57,0,0,1,9.08,12.59l-44.38,133.31A9.56,9.56,0,0,1,992.18,980.07Z"/></svg>