<svg id="Foreground" xmlns="http://www.w3.org/2000/svg" viewBox="0 0 1000 1000"><defs><style>.cls-1,.cls-10{fill:none;}.cls-1{stroke:#fd8369;stroke-linecap:round;stroke-miterlimit:10;stroke-width:4px;}.cls-2{fill:#fd8369;}.cls-3{fill:#de8e68;}.cls-4{fill:#56cad8;}.cls-5{fill:#74d5de;}.cls-6{fill:#d9805a;}.cls-7{fill:#fed07d;}.cls-8{fill:#fed385;}.cls-9{fill:#fed892;}</style></defs><title>Artboard 1</title><line class="cls-1" x1="458" y1="639" x2="390" y2="889"/><line class="cls-1" x1="483" y1="639" x2="551" y2="889"/><polygon class="cls-2" points="433 644 303 644 150 280 280 280 433 644"/><line class="cls-1" x1="477" y1="450" x2="477" y2="814"/><line class="cls-1" x1="526" y1="450" x2="526" y2="870"/><rect class="cls-3" x="585.7" y="860.15" width="17.08" height="19" transform="translate(-4.73 3.25) rotate(-0.31)"/><polygon points="585.27 892.73 648.89 895.67 650 890.42 606.1 874.6 585.73 875.29 585.27 892.73"/><rect class="cls-3" x="488.26" y="864.51" width="22.47" height="25" transform="translate(555 -130.74) rotate(32.82)"/><path class="cls-4" d="M585,812v50h17s29-68,38-113"/><path class="cls-4" d="M426.51,498.08C437,496,503,485,575,485c83,0,118.5,9.5,127,18s-24,136-29,146"/><path class="cls-5" d="M286,479c-6,11-4.34,13-6,50-6,134,186,113,315,149C562,781,495,857,495,862s15.33,16.36,18,15c51-26,208.13-198.65,206-228-4-55-262-152-296-152"/><path class="cls-6" d="M487.31,329.9C517,355,534,409,536,409c73,0,143,19,148,19s15-7,19-7,22,8,22,12-214,1-219,1c-4.5-4.5-43-41-43-47"/><line class="cls-1" x1="683" y1="312" x2="700" y2="368"/><path class="cls-7" d="M392,231c-20.53,15.64,2,129,21,136s83-35,84-50S413,215,392,231Z"/><path class="cls-8" d="M283,446c23-99,101-242,118-258,35,0,82,79,82,126,0,53-48.95,179.3-59,186-18,12-116,3-142-21C277.29,474.66,283,446,283,446Z"/><circle class="cls-3" cx="404.5" cy="138.5" r="11.5"/><path class="cls-6" d="M395,198c-.81,2.71,32.5,9.5,35,7,0-5,0-27,3-35s-19.06-31.4-25.53-33.7C401,147,385,132,391,147S401,178,395,198Z"/><ellipse class="cls-3" cx="427" cy="126" rx="28" ry="53"/><path d="M377,82c-30,0-36-27-71-27-29,0-39.35,19.51-52,29-12,9-57,20-57,69,0,34,26,65,55,65,36,0,71-45,109-45,16,0,13,6,32,6,7,0,7-5,7-7s3-6,3-10c0-12-10-7-10-23,0-7,7-11.73,14-11.73S444,102,444,84c2,2,5,11,5,12,1,0,2-5,2-7,0-20-20-25-27-25C408,64,401,82,377,82Z"/><path class="cls-9" d="M390,244c-20.53,15.64,2,129,21,136s83-35,84-50S411,228,390,244Z"/><path class="cls-3" d="M485,340c3,4,21,29,21,29,10,0,46-2,167-37,4-1,13.43,15.91,7,20-22,14-172,81-205,81-8,0-51-53-51-60"/><circle class="cls-3" cx="686.5" cy="338.5" r="14.5"/><path class="cls-10" d="M513,877c51-26,211.09-199,206-228-10-57-262-152-296-152"/><polygon points="473 896 541 945 546 940 509 891 486.06 877.11 473 896"/><rect class="cls-2" x="458" y="435" width="419" height="19"/><line class="cls-1" x1="807" y1="450" x2="807" y2="814"/><line class="cls-1" x1="857" y1="450" x2="857" y2="870"/><line class="cls-1" x1="345" y1="639" x2="277" y2="889"/></svg>